# xmcd
#
# Track frame offsets: 
#        150
#        12654
#        24946
#        38361
#        51661
#        64342
#        77355
#        91900
#        102751
#        116452
#        131723
#        145256
#        156659
#        167476
#        182343
#        196968
#        208818
#        219892
#        233126
#        243257
#        256400
#        269472
#        284485
#        296992
#        309944
#
# Disc length: 4300 seconds
#
# Revision: 0
# Processed by: cddbd v1.5.2PL0 Copyright (c) Steve Scherf et al.
# Submitted via: ExactAudioCopy v0.99pb5
#
DISCID=6710ca19
DTITLE=Various Artist - Broken Hearts - CD2
DYEAR=1950
DGENRE=Blues
TTITLE0=Wynonie Harris - Somebody Changed The Lock On My Door (1945)
TTITLE1=Tex Ritter - You Two Timed Me One Time Too Often (1945)
TTITLE2=Merle Travis - Divorce Me C.O.D. (1946)
TTITLE3=Joe Liggins - Breaking My Heart (1946)
TTITLE4=Cowboy Copas - Tragic Romance (1945)
TTITLE5=Tex Ritter - When You Leave Don't Slam The Door (1946)
TTITLE6=Red Foley - Never Trust A Woman (1947)
TTITLE7=Joe Liggins - You'll Miss Me As Sure As You're Born (1947)
TTITLE8=Merle Travis - I'm Sick And Tired Of You, Little Darling (1946
TTITLE8=)
TTITLE9=Big Joe Williams - Baby Please Don't Go (1947)
TTITLE10=Eddy Arnold - What A Fool I Was (1947)
TTITLE11=Muddy Waters - You're Gonna Miss Me (1948) 
TTITLE12=Eddie 'Cleanhead' Vinson - Alimony Blues (1947)
TTITLE13=Bill Monroe - Sweetheart You Done Me Wrong (1947)
TTITLE14=John Lee Hooker - Don't Go Baby (1949)
TTITLE15=Eddy Arnold - Mama And Daddy Broke My Heart (1949)
TTITLE16=B.B. King - When Your Baby Packs Up And Goes (1949)
TTITLE17=Ernest Tubb - Daddy When Is Mummy Coming Home (1949)
TTITLE18=Bill Monroe - Toy Heart (1947)
TTITLE19=Hank Williams - You're Gonna Change (Or I'm Gonna Leave) (194
TTITLE19=9)
TTITLE20=Lowell Fulson - Cold Hearted Woman (1949)
TTITLE21=The Ink Spots - You're Breaking My Heart (1949)
TTITLE22=Louis Jordan - Baby's Gonna Go Bye-Bye (1949)
TTITLE23=Bob Willis and His Texas Playboys - Faded Love (1950)
TTITLE24=Hank Snow - I'm Movin' On (1950)
EXTD=
EXTT0=
EXTT1=
EXTT2=
EXTT3=
EXTT4=
EXTT5=
EXTT6=
EXTT7=
EXTT8=
EXTT9=
EXTT10=
EXTT11=
EXTT12=
EXTT13=
EXTT14=
EXTT15=
EXTT16=
EXTT17=
EXTT18=
EXTT19=
EXTT20=
EXTT21=
EXTT22=
EXTT23=
EXTT24=
PLAYORDER=
